<svg width="183" height="56" viewBox="0 0 183 56" fill="none" xmlns="http://www.w3.org/2000/svg">
<g clip-path="url(#clip0_3036_85)">
<g clip-path="url(#clip1_3036_85)">
<path d="M57.2005 53.3106H53.301C53.0187 54.1483 52.7466 55.0009 52.5007 55.853H51.5865C52.5488 52.7412 53.5731 49.8167 54.7808 47.2113H55.7062C56.914 49.8167 57.964 52.7044 58.915 55.853H58.0008C57.7549 55.0009 57.4833 54.1483 57.2005 53.3106ZM53.5619 52.5317H56.9434C56.3376 50.7645 55.7207 49.1736 55.2545 48.1264C54.7846 49.1773 54.1676 50.7682 53.5656 52.5317H53.5619ZM60.7691 55.853V47.2113H61.632C63.1374 49.9049 64.6168 52.1019 66.4307 54.6075C66.405 54.2878 66.3938 53.8911 66.3938 53.4356V47.215H67.2348V55.8567H66.3719C64.4847 53.3255 62.9316 51.1905 61.5732 48.685C61.5988 49.1036 61.61 49.5852 61.61 50.0663V55.8567H60.7728L60.7691 55.853ZM78.5103 55.853H73.4764V47.2113H78.5103V47.9906H74.365V51.0291H77.9191V51.8079H74.365V55.0816H78.5103V55.8605V55.853ZM83.3749 51.9512C82.5858 53.0241 81.6716 54.431 81.0177 55.853H80.0816C80.7718 54.284 81.833 52.7412 82.9563 51.3231L80.2543 47.2113H81.2786L83.6357 50.7901C84.5719 49.6291 85.376 48.3466 85.8314 47.2113H86.7564C86.1763 48.6444 85.2145 50.0514 84.0432 51.4075L86.9547 55.853H85.9416L83.3749 51.9512ZM93.8208 55.853H88.7868V47.2113H93.8208V47.9906H89.6754V51.0291H93.2295V51.8079H89.6754V55.0816H93.8208V55.8605V55.853ZM95.8512 47.2113H96.7393V55.0741H100.837V55.853H95.8545V47.2113H95.8512ZM105.665 56C103.209 56 102.037 54.0381 102.037 51.5321C102.037 49.0266 103.187 47.0647 105.665 47.0647C108.143 47.0647 109.303 49.0266 109.303 51.5321C109.303 54.0381 108.132 56 105.665 56ZM105.665 55.1992C107.578 55.1992 108.378 53.5715 108.378 51.5321C108.378 49.4933 107.574 47.8655 105.665 47.8655C103.756 47.8655 102.963 49.497 102.963 51.5321C102.963 53.5677 103.763 55.1992 105.665 55.1992ZM111.58 55.853V47.2113H112.443C113.948 49.9049 115.428 52.1019 117.241 54.6075C117.216 54.2878 117.205 53.8911 117.205 53.4356V47.215H118.045V55.8567H117.183C115.296 53.3255 113.742 51.1905 112.384 48.685C112.409 49.1036 112.421 49.5852 112.421 50.0663V55.8567H111.583L111.58 55.853ZM123.843 51.6315C123.843 49.0266 125.077 47.0647 127.691 47.0647C128.418 47.0647 129.145 47.2262 129.798 47.4982L129.578 48.2622C128.998 48.0527 128.432 47.8655 127.702 47.8655C125.605 47.8655 124.764 49.5446 124.764 51.6315C124.764 53.7185 125.716 55.1992 127.76 55.1992C128.576 55.1992 129.167 54.9785 129.673 54.7545L129.857 55.5189C129.35 55.776 128.572 56 127.735 56C125.179 56 123.836 54.2584 123.836 51.6315H123.843ZM134.755 56C132.299 56 131.127 54.0381 131.127 51.5321C131.127 49.0266 132.276 47.0647 134.755 47.0647C137.233 47.0647 138.393 49.0266 138.393 51.5321C138.393 54.0381 137.222 56 134.755 56ZM134.755 55.1992C136.668 55.1992 137.468 53.5715 137.468 51.5321C137.468 49.4933 136.668 47.8655 134.755 47.8655C132.842 47.8655 132.052 49.497 132.052 51.5321C132.052 53.5677 132.853 55.1992 134.755 55.1992ZM149.243 47.2113V55.853H148.406V50.0995C148.406 49.6034 148.431 49.1624 148.443 48.7765C147.653 50.6025 146.666 52.4547 145.347 54.5304H144.584C143.262 52.458 142.263 50.5806 141.463 48.7657C141.5 49.1479 141.51 49.6034 141.51 50.0995V55.853H140.674V47.2113H141.599C142.487 49.3831 143.611 51.4589 144.98 53.6559C146.335 51.4589 147.447 49.3831 148.321 47.2113H149.247H149.243ZM151.931 47.2113H154.027C156.112 47.2113 157.456 48.0494 157.456 49.9781C157.456 51.9069 156.112 52.73 154.027 52.73H152.819V55.853H151.931V47.2113ZM154.016 47.9906H152.819V51.9549H154.016C155.532 51.9549 156.545 51.4995 156.545 49.9781C156.545 48.4573 155.532 47.9906 154.016 47.9906ZM163.867 53.3106H159.967C159.685 54.1483 159.413 55.0009 159.167 55.853H158.253C159.215 52.7412 160.239 49.8167 161.447 47.2113H162.372C163.58 49.8167 164.63 52.7044 165.581 55.853H164.667C164.421 55.0009 164.149 54.1483 163.867 53.3106ZM160.228 52.5317H163.61C163.004 50.7645 162.387 49.1736 161.921 48.1264C161.451 49.1773 160.834 50.7682 160.232 52.5317H160.228ZM167.436 55.853V47.2113H168.298C169.803 49.9049 171.283 52.1019 173.097 54.6075C173.071 54.2878 173.06 53.8911 173.06 53.4356V47.215H173.897V55.8567H173.035C171.147 53.3255 169.591 51.1905 168.236 48.685C168.262 49.1036 168.273 49.5852 168.273 50.0663V55.8567H167.436V55.853ZM178.652 52.2121C177.345 50.4705 176.42 48.9897 175.693 47.2113H176.629C177.246 48.7181 177.962 49.9049 179.107 51.4701C180.242 49.9156 180.947 48.7181 181.564 47.2113H182.5C181.747 48.9897 180.848 50.4854 179.54 52.1864V55.853H178.652V52.2121ZM59.4475 32.6177C56.9434 32.6177 54.065 32.2797 52.3467 31.3465V5.31499L56.1211 5.12762V13.5819C56.9434 13.0969 58.2505 12.7588 59.7448 12.7588C65.278 12.7588 69.0156 16.1244 69.0156 22.3704C69.0156 28.6165 65.4283 32.6177 59.4475 32.6177ZM59.3374 29.4396C63.2256 29.4396 65.131 26.8236 65.131 22.4439C65.131 18.0644 63.1482 15.937 59.4512 15.937C58.1441 15.937 56.9102 16.422 56.1248 16.9107V28.9178C57.0204 29.2926 57.957 29.4432 59.3374 29.4432V29.4396ZM79.3802 39.312C76.689 39.312 75.0444 38.9777 73.1386 38.2282L73.9244 35.1602C75.5694 35.7958 77.1776 36.0935 79.1562 36.0935C82.4826 36.0935 84.2378 34.5613 84.2378 31.9784V30.4059C83.0776 31.0048 81.6972 31.3795 80.1255 31.3795C74.7798 31.3795 71.4166 28.1242 71.4166 22.4403C71.4166 16.4551 75.2278 12.7515 81.0215 12.7515C83.8229 12.7515 86.3672 13.4606 88.0122 14.2469V31.6404C88.0122 36.6152 84.6858 39.3083 79.3802 39.3083V39.312ZM80.6505 28.1646C82.1452 28.1646 83.3054 27.7898 84.2378 27.191V16.5322C83.4155 16.2346 82.2185 15.9333 81.0252 15.9333C77.4748 15.9333 75.268 18.2885 75.268 22.1427C75.268 25.9969 77.2508 28.1646 80.6505 28.1646ZM107.692 31.306C105.937 32.129 103.694 32.614 101.263 32.614C95.3188 32.614 91.3936 28.984 91.3936 22.6644C91.3936 16.8299 94.8708 12.7515 100.327 12.7515C105.261 12.7515 108.176 16.3044 108.176 21.0551C108.176 22.0288 108.103 22.8518 108.026 23.5609H95.2819C95.6562 27.5621 97.9363 29.3955 101.597 29.3955C103.466 29.3955 105.371 28.9472 107.053 28.2344L107.688 31.3024L107.692 31.306ZM95.3225 21.1323H104.479C104.516 20.9081 104.516 20.7575 104.516 20.5334C104.516 18.0276 103.209 15.8598 100.33 15.8598C97.4519 15.8598 95.6562 17.9174 95.3225 21.1323ZM109.014 12.0608C109.274 12.16 109.637 12.2702 110.045 12.2702C110.541 12.2702 110.831 12.0828 110.831 11.697C110.831 11.2598 110.5 11.1312 109.957 10.9512C109.318 10.7418 108.929 10.4625 108.929 9.83788C108.929 9.16186 109.403 8.7834 110.207 8.7834C110.559 8.7834 110.941 8.86791 111.184 8.96712L111.066 9.44476C110.805 9.3566 110.526 9.29043 110.24 9.29043C109.751 9.29043 109.513 9.47416 109.513 9.81954C109.513 10.1943 109.759 10.3192 110.24 10.4809C110.901 10.7013 111.418 10.9328 111.418 11.6897C111.418 12.4465 110.824 12.7735 110.071 12.7735C109.609 12.7735 109.182 12.6817 108.907 12.5605L109.017 12.0608H109.014ZM116.041 8.85321V12.7111H115.501V10.4772C115.501 10.2457 115.512 10.0326 115.531 9.83424C115.215 10.5507 114.818 11.2855 114.308 12.0828H113.838C113.32 11.2855 112.924 10.547 112.601 9.83055C112.623 10.0253 112.633 10.2421 112.633 10.4809V12.7148H112.098V8.8569H112.692C113.067 9.77544 113.508 10.6095 114.073 11.5133C114.635 10.6095 115.064 9.77544 115.439 8.8569H116.037L116.041 8.85321Z" fill="white"/>
<path d="M39.9001 23.8915C39.3273 22.2638 38.3984 20.5957 37.565 19.1812C36.5002 17.3698 36.1955 15.5988 36.5479 13.2511C37.0619 9.83043 36.1587 6.69639 34.1284 4.86663C32.7956 3.66518 30.354 2.44903 26.3042 3.49985C23.0072 4.35225 19.9635 2.73562 17.5182 1.43497C15.6383 0.435594 14.1514 -0.354351 13.0058 0.163706C12.3413 0.464988 11.8824 1.18512 11.6033 2.36453C10.869 5.48021 10.1604 7.63327 9.37101 9.14335C8.7138 10.3999 8.01254 11.2046 7.03221 11.8255C4.59429 13.3723 2.80257 15.0955 1.70844 16.9436C0.735476 18.5933 0.338945 20.3422 0.559239 22.0066C0.753832 23.4653 1.41838 24.843 2.47579 25.982C3.50382 27.0916 4.8513 27.922 6.37132 28.3923C7.5756 28.7634 8.53754 29.4137 9.30857 30.3764C10.0429 31.2949 10.612 32.511 11.0452 34.0909C11.4307 35.5018 12.0476 36.6849 12.8774 37.6181C13.7034 38.5477 14.6984 39.1723 15.8329 39.4736C16.3396 39.6095 16.861 39.6757 17.397 39.6757C18.2158 39.6757 19.0676 39.5177 19.9341 39.198C21.4431 38.6469 22.9411 37.6365 24.3914 36.1962C25.8012 34.7963 27.0973 33.9109 28.4668 33.4149C29.6784 32.974 30.8019 32.8968 31.9878 32.8123C33.339 32.7168 34.7378 32.6176 36.3937 31.9856C38.3984 31.2177 39.6797 30.0714 40.2011 28.5797C40.6527 27.2864 40.5536 25.7543 39.9001 23.8878V23.8915ZM37.0252 23.7959C36.7792 26.467 35.5089 28.6605 33.2545 30.3176C32.2632 31.0414 31.2976 31.519 30.3136 31.9342C30.9928 31.4161 31.6317 30.843 32.2228 30.2073C33.6143 28.7119 34.6718 26.9888 35.3657 25.0819C36.0376 23.2411 36.3423 21.3122 36.2726 19.3465C36.2579 18.9166 36.2211 18.4905 36.1698 18.0679C36.2395 18.2075 36.3019 18.3398 36.368 18.4794C36.9518 20.3973 37.1758 22.1793 37.0289 23.7959H37.0252ZM21.6634 34.4216C21.4872 34.4289 21.3109 34.4326 21.1347 34.4326C17.4484 34.4326 13.9531 33.0585 11.2435 30.5306C8.40169 27.8816 6.76421 24.2883 6.62467 20.4047C6.48514 16.5211 7.86932 12.8175 10.5128 9.97738C13.1601 7.13361 16.7508 5.49491 20.6317 5.35528C20.8079 5.34795 20.9841 5.34427 21.1604 5.34427C24.8467 5.34427 28.342 6.71841 31.0516 9.24625C33.8934 11.8953 35.5309 15.4886 35.6704 19.3722C35.8099 23.2558 34.4257 26.9594 31.7822 29.7995C29.135 32.6433 25.5442 34.282 21.6634 34.4216ZM31.4591 8.80535C29.9648 7.41281 28.2428 6.35469 26.3373 5.66025C25.2762 5.27445 24.1821 5.00995 23.0733 4.87032C27.0643 4.46983 30.398 6.21507 32.366 9.73121C32.076 9.41159 31.7786 9.10294 31.4591 8.80535ZM14.9591 6.06443C13.1086 6.89108 11.4675 8.07049 10.0759 9.56587C10.0319 9.61366 9.99149 9.66509 9.94743 9.71287C10.1163 9.33809 10.2852 8.9376 10.4614 8.50775C10.6377 8.1697 10.8176 7.82801 11.0085 7.46793C12.4294 4.82991 14.8636 4.92543 17.9441 5.04667C17.9992 5.04667 18.0579 5.05036 18.113 5.054C17.0299 5.27445 15.9761 5.60882 14.9591 6.06443ZM6.02622 20.4231C6.09599 22.3887 6.53652 24.2919 7.33695 26.0776C7.81057 27.1357 8.40169 28.1278 9.09931 29.0426C7.20843 27.6134 5.9124 25.6587 5.42408 23.4653C4.92473 21.2203 5.26616 18.8211 6.40436 16.4696C6.10695 17.7593 5.97479 19.082 6.02253 20.4231H6.02622ZM15.9541 34.113C17.621 34.7229 19.3613 35.0278 21.1347 35.0278C21.3183 35.0278 21.5018 35.0278 21.6817 35.0168C22.5923 34.9838 23.4881 34.8698 24.3657 34.6788C22.8787 35.5385 21.3183 35.9905 19.7872 35.9905C19.4678 35.9905 19.152 35.9721 18.84 35.9317C17.0005 35.7076 15.3666 34.8404 14.1147 33.4333C14.0339 33.3414 13.9531 33.2532 13.8686 33.165C14.5369 33.5325 15.2308 33.8485 15.9541 34.113ZM34.0586 11.7336C33.7759 11.1789 33.4858 10.602 33.2031 10.0289C32.2118 8.01906 30.7652 6.42815 29.0212 5.43615C27.9968 4.85562 26.888 4.48452 25.7058 4.31184C27.7435 4.10608 29.5609 4.53229 31.0075 5.57209C31.9364 6.24078 32.7038 7.14093 33.2839 8.24689C33.8457 9.31607 34.2055 10.5285 34.3597 11.8475C34.3854 12.0753 34.4184 12.2958 34.4514 12.5162C34.3193 12.2554 34.1871 11.9945 34.0586 11.7336ZM17.9624 4.44778C16.4167 4.38532 14.9591 4.3302 13.6887 4.64986C12.7966 4.87396 12.0659 5.26713 11.4675 5.8513C11.5703 5.56841 11.6694 5.28183 11.7759 4.98055C12.2862 3.51822 13.0315 3.00751 14.1403 3.00751C14.9775 3.00751 16.0202 3.30144 17.3236 3.69458C18.2562 3.97749 19.2915 4.29346 20.4003 4.49187C19.5743 4.50657 18.7629 4.47717 17.9661 4.44778H17.9624ZM6.48145 15.0624C4.79623 17.8952 4.22712 20.8456 4.84028 23.5938C5.17073 25.0782 5.84627 26.4597 6.8119 27.6575C4.9394 26.5111 3.70576 24.7512 3.39 22.7378C3.0926 20.8272 3.49648 17.8217 6.95143 14.2321C6.7972 14.5187 6.64301 14.7979 6.48514 15.0624H6.48145ZM13.6667 33.8301C15.0179 35.3475 16.7802 36.2807 18.7665 36.5232C19.1043 36.5637 19.4458 36.5857 19.7909 36.5857C20.9841 36.5857 22.1884 36.3285 23.367 35.8398C21.3586 37.225 19.2548 37.7577 17.3493 37.3426C15.4364 36.9237 13.8613 35.59 12.9104 33.5876C12.6828 33.1063 12.3927 32.6213 12.0549 32.1436C12.5836 32.6507 13.1196 33.2128 13.6704 33.8338L13.6667 33.8301ZM31.7969 31.9048C32.3954 31.5998 32.9939 31.2471 33.607 30.7952C36.0082 29.0353 37.3593 26.6985 37.62 23.8474C37.6898 23.0758 37.6751 22.2675 37.587 21.4334C38.0386 22.7929 38.2772 24.0127 38.2919 25.1002C38.3066 26.309 38.0496 27.3819 37.5245 28.2931C36.9371 29.3182 35.9935 30.1742 34.7195 30.843C33.6804 31.3904 32.7405 31.677 31.7969 31.9011V31.9048ZM33.7318 5.31123C35.6117 7.00499 36.4451 9.94065 35.9605 13.1629C35.8393 13.9639 35.7989 14.695 35.8283 15.3931C35.7218 15.1506 35.6153 14.9118 35.5015 14.673C35.2592 13.7728 35.0793 12.8249 34.9545 11.7777C34.7929 10.3852 34.4074 9.10294 33.8126 7.96763C33.1885 6.77721 32.3623 5.8072 31.3563 5.08709C30.4017 4.40002 29.3002 3.96279 28.096 3.77174C30.9157 3.44473 32.6965 4.37797 33.7318 5.31123ZM13.2592 0.707481C13.4244 0.633999 13.608 0.600931 13.8063 0.600931C14.6801 0.600931 15.888 1.24391 17.2428 1.96405C18.7518 2.76869 20.4848 3.68355 22.3793 4.10241C20.6317 4.07302 18.9905 3.577 17.4962 3.12141C16.068 2.68786 14.838 2.31309 13.7732 2.42332C13.0352 2.50047 12.4514 2.80175 11.9888 3.34921C12.0586 3.07364 12.1247 2.7944 12.1944 2.50415C12.4258 1.5158 12.7745 0.927934 13.2629 0.711158L13.2592 0.707481ZM2.92005 25.5779C1.94709 24.5271 1.33761 23.2668 1.15771 21.9295C0.948427 20.379 1.30823 18.8027 2.22612 17.2486C3.26885 15.4813 4.99449 13.8279 7.35529 12.3326C7.66371 12.1341 7.9501 11.9174 8.21811 11.6749C8.18138 11.7483 8.14839 11.8181 8.11166 11.8916C7.71513 12.5052 7.31492 13.0049 6.88167 13.4311C2.90536 17.3625 2.46479 20.7096 2.79156 22.8259C3.06325 24.5859 3.98114 26.1658 5.38003 27.3599C4.44009 26.9153 3.59929 26.309 2.91638 25.5705L2.92005 25.5779ZM19.7285 38.6395C18.4104 39.1209 17.151 39.2091 15.9872 38.8967C14.9701 38.6248 14.0743 38.059 13.3253 37.2213C12.5579 36.3615 11.9851 35.2556 11.6253 33.9366C11.3463 32.9189 11.0048 32.0371 10.5973 31.2728C11.2986 32.0481 11.9227 32.9189 12.3633 33.8448C13.395 36.0199 15.117 37.4675 17.2171 37.9267C17.6834 38.0296 18.1607 38.0811 18.6454 38.0811C19.9194 38.0811 21.2338 37.7284 22.5299 37.0449C21.6046 37.7614 20.6684 38.2978 19.7321 38.6395H19.7285ZM39.6357 28.385C39.1657 29.7223 38.0349 30.7181 36.1771 31.4308C35.127 31.8313 34.1798 32.0077 33.2729 32.1069C33.8273 31.9232 34.3964 31.6917 34.9948 31.3757C37.609 30.0016 38.9197 27.8889 38.8867 25.0929C38.8757 24.0935 38.6885 22.9986 38.3323 21.7972C38.7178 22.554 39.0666 23.3293 39.3346 24.0898C39.9441 25.8204 40.0432 27.2239 39.6357 28.385Z" fill="url(#paint0_linear_3036_85)"/>
</g>
</g>
<defs>
<linearGradient id="paint0_linear_3036_85" x1="12.3817" y1="37.71" x2="32.1226" y2="3.53766" gradientUnits="userSpaceOnUse">
<stop offset="0.17" stop-color="#AC45FF"/>
<stop offset="0.25" stop-color="#5E24BD"/>
<stop offset="0.46" stop-color="#3D67B4"/>
<stop offset="0.64" stop-color="#239DAD"/>
<stop offset="0.8" stop-color="#0FC3A9"/>
<stop offset="0.92" stop-color="#04DBA6"/>
<stop offset="1" stop-color="#00E4A5"/>
</linearGradient>
<clipPath id="clip0_3036_85">
<rect width="182" height="56" fill="white" transform="translate(0.5)"/>
</clipPath>
<clipPath id="clip1_3036_85">
<rect width="182" height="56" fill="white" transform="translate(0.5)"/>
</clipPath>
</defs>
</svg>
