<?xml version="1.0" encoding="UTF-8"?>
<svg id="Layer_2" data-name="Layer 2" xmlns="http://www.w3.org/2000/svg" viewBox="0 0 308.64 101.42">
  <defs>
    <style>
      .cls-1 {
        fill: #fff;
      }
    </style>
  </defs>
  <g id="Layer_1-2" data-name="Layer 1">
    <path class="cls-1" d="M170.95,37.01c0-20.93-23-37.01-23-37.01,0,0-23.02,16.38-23.02,37.01,0,12.71,10.31,23,23.02,23s23-10.29,23-23ZM149.58,58.25v-2.99c4.48-.78,7.88-4.68,7.88-9.38h-3.21v-4.35h-2.57v4.35h-7.51v-4.35h-2.57v4.35h-3.2c0,4.67,3.36,8.55,7.79,9.36v2.99c-7.78-.87-13.82-7.45-13.82-15.46,0-13.97,15.56-25.04,15.56-25.04,0,0,15.6,10.87,15.6,25.04,0,8.05-6.12,14.66-13.96,15.48Z"/>
    <path class="cls-1" d="M0,16.04h28.86v8.64H9.36v7.92h18.42v8.64H9.36v8.64h20.58v8.64H0V16.04Z"/>
    <path class="cls-1" d="M35.7,29.36h8.64v3.96h.12c.28-.56.68-1.12,1.2-1.68.52-.56,1.14-1.06,1.86-1.5.72-.44,1.54-.8,2.46-1.08.92-.28,1.92-.42,3-.42,2.04,0,3.85.42,5.43,1.26s2.77,2.16,3.57,3.96c1.04-1.88,2.3-3.22,3.78-4.02,1.48-.8,3.3-1.2,5.46-1.2,1.96,0,3.61.33,4.95.99,1.34.66,2.4,1.56,3.18,2.7.78,1.14,1.34,2.48,1.68,4.02.34,1.54.51,3.19.51,4.95v17.22h-9v-16.98c0-1.36-.29-2.53-.87-3.51-.58-.98-1.61-1.47-3.09-1.47-1.04,0-1.91.17-2.61.51-.7.34-1.26.81-1.68,1.41s-.72,1.3-.9,2.1c-.18.8-.27,1.64-.27,2.52v15.42h-9v-15.42c0-.52-.02-1.16-.06-1.92-.04-.76-.18-1.48-.42-2.16-.24-.68-.63-1.26-1.17-1.74-.54-.48-1.33-.72-2.37-.72-1.16,0-2.1.21-2.82.63s-1.27.98-1.65,1.68c-.38.7-.63,1.49-.75,2.37-.12.88-.18,1.8-.18,2.76v14.52h-9v-29.16Z"/>
    <path class="cls-1" d="M88.44,16.04h15.78c2.2,0,4.28.2,6.24.6,1.96.4,3.67,1.09,5.13,2.07,1.46.98,2.62,2.3,3.48,3.96s1.29,3.75,1.29,6.27-.4,4.56-1.2,6.24c-.8,1.68-1.9,3.02-3.3,4.02-1.4,1-3.06,1.71-4.98,2.13-1.92.42-4,.63-6.24.63h-6.84v16.56h-9.36V16.04ZM97.8,34.04h6.24c.84,0,1.65-.08,2.43-.24.78-.16,1.48-.43,2.1-.81.62-.38,1.12-.9,1.5-1.56.38-.66.57-1.49.57-2.49,0-1.08-.25-1.95-.75-2.61-.5-.66-1.14-1.17-1.92-1.53-.78-.36-1.65-.59-2.61-.69-.96-.1-1.88-.15-2.76-.15h-4.8v10.08Z"/>
    <path class="cls-1" d="M173.52,16.04h10.2l6.78,27.24h.12l8.88-27.24h8.7l8.82,27.96h.12l7.14-27.96h9.48l-12.42,42.48h-8.34l-9.36-29.4h-.12l-9.36,29.4h-8.04l-12.6-42.48Z"/>
    <path class="cls-1" d="M237.72,16.04h28.86v8.64h-19.5v7.92h18.42v8.64h-18.42v8.64h20.58v8.64h-29.94V16.04Z"/>
    <path class="cls-1" d="M274.56,16.04h16.44c2.16,0,4.21.21,6.15.63,1.94.42,3.64,1.12,5.1,2.1,1.46.98,2.62,2.3,3.48,3.96.86,1.66,1.29,3.73,1.29,6.21,0,3-.78,5.55-2.34,7.65-1.56,2.1-3.84,3.43-6.84,3.99l10.8,17.94h-11.22l-8.88-16.98h-4.62v16.98h-9.36V16.04ZM283.92,33.62h5.52c.84,0,1.73-.03,2.67-.09.94-.06,1.79-.24,2.55-.54.76-.3,1.39-.77,1.89-1.41.5-.64.75-1.54.75-2.7,0-1.08-.22-1.94-.66-2.58s-1-1.13-1.68-1.47c-.68-.34-1.46-.57-2.34-.69-.88-.12-1.74-.18-2.58-.18h-6.12v9.66Z"/>
    <g>
      <path class="cls-1" d="M20.53,72.25h7.71l7.2,20.73h.12l7.12-20.73h7.75v29.18h-4.89v-23.45h-.08l-8.42,23.45h-3.45l-8.3-23.45h-.08v23.45h-4.7v-29.18Z"/>
      <path class="cls-1" d="M73.06,72.25h4.27l11.94,29.18h-5.64l-2.58-6.68h-12.02l-2.51,6.68h-5.52l12.06-29.18ZM79.33,90.3l-4.27-11.87-4.35,11.87h8.61Z"/>
      <path class="cls-1" d="M99.8,72.25h9.63c1.3,0,2.57.14,3.8.43,1.23.29,2.32.76,3.27,1.42.95.66,1.72,1.52,2.29,2.6.57,1.07.86,2.38.86,3.92,0,2.12-.57,3.84-1.7,5.17-1.14,1.33-2.68,2.23-4.64,2.7l7.4,12.94h-5.95l-6.42-12.36h-3.6v12.36h-4.93v-29.18ZM108.77,84.82c.7,0,1.41-.05,2.11-.17.71-.11,1.34-.32,1.9-.62.56-.3,1.02-.73,1.39-1.3.36-.56.55-1.28.55-2.16,0-.8-.17-1.45-.51-1.96-.34-.51-.77-.91-1.29-1.22-.52-.3-1.12-.51-1.78-.62-.67-.11-1.31-.17-1.94-.17h-4.46v8.2h4.03Z"/>
      <path class="cls-1" d="M138.68,88.77l-10.41-16.52h6.03l6.97,12.28,7.05-12.28h5.72l-10.41,16.52v12.65h-4.93v-12.65Z"/>
      <path class="cls-1" d="M164.12,72.25h4.93v24.56h11.78v4.62h-16.72v-29.18Z"/>
      <path class="cls-1" d="M200.65,72.25h4.27l11.94,29.18h-5.64l-2.58-6.68h-12.02l-2.5,6.68h-5.52l12.06-29.18ZM206.91,90.3l-4.27-11.87-4.35,11.87h8.61Z"/>
      <path class="cls-1" d="M227.39,72.25h6.54l12.88,21.84h.08v-21.84h4.93v29.18h-6.26l-13.15-22.54h-.08v22.54h-4.93v-29.18Z"/>
      <path class="cls-1" d="M265.75,72.25h9.83c1.8,0,3.61.25,5.44.74,1.83.5,3.47,1.31,4.93,2.45,1.46,1.14,2.65,2.64,3.56,4.49.91,1.85,1.37,4.16,1.37,6.9,0,2.55-.46,4.75-1.37,6.59-.91,1.84-2.1,3.35-3.56,4.53-1.46,1.18-3.11,2.05-4.93,2.62-1.83.56-3.64.84-5.44.84h-9.83v-29.18ZM274.8,96.89c1.28,0,2.56-.16,3.84-.47,1.28-.32,2.43-.85,3.46-1.61,1.03-.75,1.87-1.78,2.52-3.07.65-1.29.98-2.93.98-4.9,0-2.09-.33-3.79-.98-5.11-.65-1.32-1.49-2.35-2.52-3.09-1.03-.74-2.19-1.25-3.46-1.52-1.28-.27-2.56-.41-3.84-.41h-4.11v20.19h4.11Z"/>
    </g>
  </g>
</svg>